<?xml version="1.0" encoding="utf-8"?>
<!-- Generator: Adobe Illustrator 25.0.0, SVG Export Plug-In . SVG Version: 6.00 Build 0)  -->
<svg version="1.1" id="Capa_1" xmlns="http://www.w3.org/2000/svg" xmlns:xlink="http://www.w3.org/1999/xlink" x="0px" y="0px"
	 viewBox="0 0 24 24" style="enable-background:new 0 0 24 24;" xml:space="preserve">
<style type="text/css">
	.st0{fill:#44300D;}
</style>
<desc>Created with Sketch.</desc>
<path class="st0" d="M23.1,6.6c-0.2,0.5-0.3,1.1-0.5,1.6c-0.7,2.5-1.4,5-2.2,7.6c-0.1,0.5-0.3,0.6-0.8,0.6c-3.9,0-7.8,0-11.8,0
	c-0.5,0-0.8,0.2-0.8,0.7c0,0.4,0.3,0.7,0.8,0.7c3.9,0,7.8,0,11.7,0c0.5,0,0.8,0.2,0.8,0.7c0,0.4-0.3,0.7-0.8,0.7c-0.3,0-0.6,0-0.9,0
	c1.2,0.3,1.9,1.2,1.7,2.3c-0.1,0.9-1,1.7-2,1.7c-1,0-1.9-0.8-2-1.8c-0.1-0.9,0.5-1.9,1.7-2.1c-3,0-5.9,0-8.8,0
	c0.5,0.1,1,0.4,1.3,0.8c0.3,0.5,0.4,1,0.3,1.5c-0.2,0.9-1.1,1.7-2,1.6c-1.1,0-1.9-0.8-1.9-1.9c-0.1-1,0.6-1.9,1.7-2.1
	c-0.3,0-0.6,0-1,0c-0.9,0-1.7-0.6-2-1.4c-0.3-0.9,0.1-1.9,0.9-2.3c0.1,0,0.1-0.1,0.2-0.1C6.1,11.7,5.3,8.1,4.5,4.4
	c-0.4,0-0.7,0-1.1,0c-0.8,0-1.6,0-2.3,0C0.5,4.4,0.2,4,0.4,3.5C0.5,3.3,0.7,3.1,1,3.1c1.3,0,2.7,0,4,0c0.4,0,0.6,0.2,0.7,0.6
	C5.8,4.4,6,5.1,6.1,5.8c0.1,0,0.2,0,0.3,0c5.3,0,10.5,0,15.8,0c0.4,0,0.7,0.1,0.9,0.5C23.1,6.4,23.1,6.5,23.1,6.6z M21.6,7.1
	c-5.1,0-10.1,0-15.1,0c0.6,2.7,1.2,5.3,1.8,8c3.7,0,7.4,0,11.1,0C20,12.4,20.8,9.8,21.6,7.1z M9.7,21.1c0-0.4-0.3-0.7-0.7-0.7
	c-0.4,0-0.7,0.3-0.7,0.7c0,0.4,0.3,0.7,0.7,0.7C9.4,21.8,9.7,21.5,9.7,21.1z M19.1,21.1c0-0.4-0.3-0.7-0.7-0.7
	c-0.4,0-0.7,0.3-0.7,0.7c0,0.4,0.3,0.7,0.7,0.7C18.8,21.8,19.1,21.5,19.1,21.1z"/>
</svg>
