<?xml version="1.0" encoding="utf-8"?>
<!-- Generator: Adobe Illustrator 25.0.0, SVG Export Plug-In . SVG Version: 6.00 Build 0)  -->
<svg version="1.1" id="Capa_1" xmlns="http://www.w3.org/2000/svg" xmlns:xlink="http://www.w3.org/1999/xlink" x="0px" y="0px"
	 viewBox="0 0 26 26" style="enable-background:new 0 0 26 26;" xml:space="preserve">
<style type="text/css">
	.st0{fill-rule:evenodd;clip-rule:evenodd;fill:#44300D;}
</style>
<desc>Created with Sketch.</desc>
<path class="st0" d="M17.4,15.6l-6.2,5.7c-1,1-1,2.6,0,3.5c1,1,2.6,1,3.6,0l9.6-9.1c0.7-0.7,1.1-1.6,1.1-2.7c0-1-0.4-1.9-1.1-2.7
	l-9.6-9.1c-1-1-2.6-1-3.6,0c-1,1-1,2.6,0,3.5l6.2,5.7H3c-1.4,0-2.5,1.1-2.5,2.5c0,1.4,1.1,2.5,2.5,2.5H17.4L17.4,15.6L17.4,15.6z"/>
</svg>
