<?xml version="1.0" encoding="utf-8"?>
<!-- Generator: Adobe Illustrator 25.0.0, SVG Export Plug-In . SVG Version: 6.00 Build 0)  -->
<svg version="1.1" id="Capa_1" xmlns="http://www.w3.org/2000/svg" xmlns:xlink="http://www.w3.org/1999/xlink" x="0px" y="0px"
	 viewBox="0 0 24 24" style="enable-background:new 0 0 24 24;" xml:space="preserve">
<style type="text/css">
	.st0{fill-rule:evenodd;clip-rule:evenodd;fill:#44300D;}
</style>
<desc>Created with Sketch.</desc>
<path class="st0" d="M12,23.8C5.5,23.8,0.2,18.5,0.2,12C0.2,5.5,5.5,0.2,12,0.2S23.8,5.5,23.8,12C23.8,18.5,18.5,23.8,12,23.8
	L12,23.8z M17.9,13.5h-4.4v4.4c0,0.8-0.7,1.5-1.5,1.5c-0.8,0-1.5-0.7-1.5-1.5v-4.4H6.1c-0.8,0-1.5-0.7-1.5-1.5s0.7-1.5,1.5-1.5h4.4
	V6.1c0-0.8,0.7-1.5,1.5-1.5c0.8,0,1.5,0.7,1.5,1.5v4.4h4.4c0.8,0,1.5,0.7,1.5,1.5S18.7,13.5,17.9,13.5L17.9,13.5z"/>
</svg>
