<?xml version="1.0" encoding="utf-8"?>
<!-- Generator: Adobe Illustrator 25.0.0, SVG Export Plug-In . SVG Version: 6.00 Build 0)  -->
<svg version="1.1" id="Capa_1" xmlns="http://www.w3.org/2000/svg" xmlns:xlink="http://www.w3.org/1999/xlink" x="0px" y="0px"
	 viewBox="0 0 24 24" style="enable-background:new 0 0 24 24;" xml:space="preserve">
<style type="text/css">
	.st0{fill-rule:evenodd;clip-rule:evenodd;fill:#44300D;}
</style>
<desc>Created with Sketch.</desc>
<path class="st0" d="M21.5,8.3l-0.6,0.6l-5.8-5.8l0.6-0.6c1-1,2.5-1.4,3.9-1.1c1.4,0.4,2.5,1.5,2.9,2.9C22.9,5.7,22.5,7.2,21.5,8.3
	L21.5,8.3L21.5,8.3z M19,10.7l-3.8,3.8L10,19.7c-0.7,0.6-1.4,1-2.3,1.3l-5.1,1.3c-0.3,0.1-0.6,0.1-0.8-0.2c-0.2-0.2-0.3-0.6-0.2-0.8
	L3,16.2c0.2-0.9,0.7-1.6,1.3-2.3l5.2-5.2l3.8-3.8L19,10.7L19,10.7L19,10.7z"/>
</svg>
