<?xml version="1.0" encoding="utf-8"?>
<!-- Generator: Adobe Illustrator 25.0.0, SVG Export Plug-In . SVG Version: 6.00 Build 0)  -->
<svg version="1.1" id="Capa_1" xmlns="http://www.w3.org/2000/svg" xmlns:xlink="http://www.w3.org/1999/xlink" x="0px" y="0px"
	 viewBox="0 0 159 43" style="enable-background:new 0 0 159 43;" xml:space="preserve">
<style type="text/css">
	.st0{fill:#057147;}
	.st1{fill:#035130;}
	.st2{fill:#068051;}
</style>
<desc>Created with Sketch.</desc>
<path d="M32.9,50c0.1-0.1,0.2-0.1,0.3-0.2c0,0.1,0,0.1,0,0.2C33,50,33,50,32.9,50C32.9,50,32.9,50,32.9,50z"/>
<path class="st0" d="M31,31.5c-5-0.8-9.3-3.8-14-3.8c-5.1-0.1-9.5,3.3-15.3,3.8c0,0.7,0.6,1.3,1.3,1.3h26.8
	C30.4,32.8,31,32.2,31,31.5L31,31.5z"/>
<g>
	<path class="st1" d="M31.1,32.2C31,32.2,31,32.2,31.1,32.2c-2.3-0.4-4.4-1.1-6.4-1.9c-2.6-1-5.1-1.9-7.7-1.9c-2.6,0-5,0.8-7.5,1.8
		c-2.4,0.9-4.9,1.8-7.7,2c-0.2,0-0.4-0.1-0.5-0.4c0-0.2,0.1-0.4,0.4-0.5c2.7-0.2,5.2-1.1,7.5-2c2.6-0.9,5.1-1.8,7.8-1.8
		c2.7,0,5.3,1,8,1.9c2,0.7,4,1.5,6.2,1.8c0.2,0,0.4,0.3,0.3,0.5C31.4,32.1,31.3,32.2,31.1,32.2z"/>
</g>
<path class="st0" d="M10,16.4c1,3.8,5.6,5.8,5.6,5.8s3.1-4.1,2.2-7.9c-1-3.8-5.6-5.8-5.6-5.8S9,12.7,10,16.4z"/>
<path class="st0" d="M10.1,21.4c2.3,1.9,2.4,5.6,2.4,5.6s-3.7,0.5-6-1.4C4.2,23.6,4.1,20,4.1,20S7.8,19.5,10.1,21.4z"/>
<g>
	<g>
		<path class="st1" d="M13.8,28.8c-0.1,0-0.3-0.1-0.3-0.2c0,0-1.5-2.1-4.4-3.7c-0.2-0.1-0.3-0.4-0.2-0.6c0.1-0.2,0.4-0.3,0.6-0.2
			c3.1,1.7,4.6,3.8,4.7,3.9c0.1,0.2,0.1,0.4-0.1,0.6C14,28.8,13.9,28.8,13.8,28.8z"/>
	</g>
</g>
<path class="st0" d="M20,22.5c-1,1.8-0.1,4.1-0.1,4.1s2.5-0.6,3.4-2.5c1-1.8,0.1-4.1,0.1-4.1S20.9,20.7,20,22.5z"/>
<g>
	<g>
		<path class="st1" d="M19.5,28.3c0,0-0.1,0-0.1,0c-0.2-0.1-0.3-0.3-0.3-0.5c0-0.1,0.9-2.8,2-4.8c0.1-0.2,0.4-0.3,0.6-0.2
			c0.2,0.1,0.3,0.4,0.2,0.6c-1.1,1.9-1.9,4.6-1.9,4.6C19.9,28.2,19.7,28.3,19.5,28.3z"/>
	</g>
</g>
<g>
	<g>
		<path class="st1" d="M15.6,28.3C15.6,28.3,15.6,28.3,15.6,28.3c-0.3,0-0.4-0.2-0.4-0.5c0-0.1,0.8-7.7-2.2-13.9
			c-0.1-0.2,0-0.5,0.2-0.6c0.2-0.1,0.5,0,0.6,0.2c3.1,6.4,2.4,14,2.3,14.4C16,28.2,15.9,28.3,15.6,28.3z"/>
	</g>
</g>
<text transform="matrix(1 0 0 1 -680.9663 -213.6191)" style="font-family:'Hidalgo'; font-size:314.8169px;">Planticidad</text>
<path class="st1" d="M50.8,21.6c-0.3-0.9-0.7-1.7-1.3-2.3c-0.6-0.6-1.3-1.2-2.2-1.5c-0.9-0.3-2-0.5-3.2-0.5c-1.1,0-2.1,0.3-2.9,1
	c-0.5,0.4-1,0.9-1.4,1.5v-1.6c0-0.2-0.2-0.4-0.4-0.4h-1.9c-0.2,0-0.4,0.2-0.4,0.4v17.8c0,0.2,0.2,0.4,0.4,0.4h1.9
	c0.2,0,0.4-0.2,0.4-0.4v-6.7c0.1,0.1,0.1,0.2,0.2,0.2c0.3,0.4,0.7,0.8,1.1,1.2c0.4,0.3,0.9,0.6,1.5,0.8c0.6,0.2,1.2,0.3,1.8,0.3
	c1,0,1.9-0.2,2.8-0.5c0.8-0.3,1.6-0.8,2.2-1.5c0.6-0.6,1.1-1.4,1.4-2.3c0.3-0.9,0.5-1.9,0.5-3C51.2,23.5,51.1,22.5,50.8,21.6z
	 M44.1,20c1.5,0,2.6,0.4,3.3,1.1c0.7,0.7,1,1.9,1,3.5c0,0.5-0.1,1.1-0.2,1.7c-0.1,0.5-0.3,1-0.6,1.4c-0.3,0.4-0.7,0.8-1.3,1.1
	c-0.5,0.3-1.3,0.4-2.2,0.4c-0.6,0-1.2-0.1-1.7-0.3c-0.5-0.2-1-0.6-1.4-1c-0.4-0.4-0.7-0.9-0.9-1.5c-0.2-0.6-0.3-1.2-0.3-1.8
	c0-0.4,0.1-0.9,0.3-1.4c0.2-0.5,0.5-1,0.8-1.5c0.4-0.5,0.8-0.8,1.4-1.1C42.8,20.2,43.4,20,44.1,20z"/>
<path class="st1" d="M54.8,14.3h-1.9c-0.2,0-0.4,0.2-0.4,0.4v16.2c0,0.2,0.2,0.4,0.4,0.4h1.9c0.2,0,0.4-0.2,0.4-0.4V14.7
	C55.2,14.5,55,14.3,54.8,14.3z"/>
<path class="st1" d="M69.8,29.2c0,0-0.1-0.1-0.3-0.1c-0.1,0-0.2-0.1-0.4-0.3c-0.1-0.1-0.3-0.3-0.4-0.6c-0.1-0.2-0.2-0.5-0.2-0.9
	c0-0.1,0-0.3,0-0.6c0-0.3,0-0.6,0-0.9l0-1.2c0-0.9-0.1-1.8-0.3-2.6c-0.2-0.9-0.6-1.7-1.1-2.4c-0.5-0.7-1.2-1.3-2.1-1.7
	c-0.9-0.4-2-0.6-3.3-0.6c-1.8,0-3.4,0.5-4.5,1.4c-0.2,0.1-0.2,0.4-0.1,0.6l1.2,1.5c0.1,0.2,0.4,0.2,0.6,0.1c0.7-0.5,1.7-0.8,2.8-0.8
	c0.7,0,1.3,0.1,1.8,0.3c0.5,0.2,0.9,0.5,1.2,0.8c0.3,0.3,0.5,0.7,0.7,1.1c0,0.1,0,0.1,0.1,0.2c-0.1-0.1-0.2-0.2-0.3-0.2
	c-0.3-0.3-0.7-0.5-1.2-0.8c-0.5-0.2-1.1-0.4-1.8-0.4c-1,0-1.9,0.2-2.7,0.5c-0.7,0.3-1.3,0.7-1.8,1.2c-0.5,0.5-0.8,1.1-1,1.7
	c-0.2,0.6-0.3,1.3-0.3,1.9c0,0.7,0.1,1.4,0.4,2.1c0.3,0.7,0.6,1.3,1.1,1.8c0.5,0.5,1.1,1,1.8,1.3c0.7,0.3,1.6,0.5,2.5,0.5
	c0.7,0,1.3-0.1,1.8-0.3c0.5-0.2,0.9-0.4,1.3-0.7c0.4-0.3,0.6-0.5,0.9-0.8c0.1-0.1,0.2-0.2,0.3-0.3c0.1,0.2,0.3,0.4,0.5,0.6
	c0.2,0.3,0.5,0.5,0.7,0.7c0.3,0.2,0.5,0.4,0.7,0.5c0.2,0.1,0.5,0.2,0.7,0.3c0.1,0,0.2,0,0.3,0c0.1-0.1,0.2-0.2,0.2-0.3l0.4-1.9
	C70,29.5,69.9,29.3,69.8,29.2z M62.2,23.8c0.5,0,1,0.1,1.4,0.2c0.4,0.2,0.8,0.4,1.1,0.6c0.3,0.3,0.5,0.5,0.7,0.9
	c0.2,0.3,0.2,0.6,0.2,1c0,0.3-0.1,0.5-0.2,0.9c-0.1,0.3-0.3,0.6-0.5,0.9c-0.3,0.3-0.6,0.5-1,0.7c-0.4,0.2-1,0.3-1.7,0.3
	c-0.5,0-1-0.1-1.4-0.3c-0.4-0.2-0.7-0.4-1-0.7c-0.3-0.3-0.5-0.6-0.6-0.9c-0.1-0.4-0.2-0.7-0.2-1.1c0-0.5,0.1-0.9,0.3-1.2
	c0.2-0.3,0.5-0.6,0.8-0.8c0.3-0.2,0.7-0.3,1-0.4C61.6,23.8,62,23.8,62.2,23.8z"/>
<path class="st1" d="M81.9,20.4c-0.2-0.6-0.4-1.1-0.8-1.6c-0.3-0.5-0.8-0.8-1.4-1.1c-0.5-0.3-1.2-0.4-2-0.4c-0.7,0-1.2,0.1-1.8,0.3
	c-0.5,0.2-0.9,0.5-1.3,0.9c-0.4,0.3-0.7,0.7-0.9,1.1c0,0,0,0.1-0.1,0.1v-1.5c0-0.2-0.2-0.4-0.4-0.4h-1.9c-0.2,0-0.4,0.2-0.4,0.4
	v12.7c0,0.2,0.2,0.4,0.4,0.4h1.9c0.2,0,0.4-0.2,0.4-0.4V25c0-0.6,0.1-1.2,0.3-1.8c0.2-0.6,0.5-1.1,0.8-1.6c0.4-0.5,0.8-0.9,1.3-1.1
	c0.5-0.3,1.1-0.4,1.7-0.4c0.6,0,1,0.2,1.2,0.5c0.3,0.4,0.4,1,0.4,1.7v8.7c0,0.2,0.2,0.4,0.4,0.4h1.9c0.2,0,0.4-0.2,0.4-0.4v-8.7
	C82.1,21.6,82,21,81.9,20.4z"/>
<path class="st1" d="M92.4,28.7c0-0.1-0.1-0.2-0.2-0.2l-1.7-0.7c0,0-0.1,0-0.1-0.1c-0.2-0.1-0.3,0-0.5,0.1c-0.1,0.1-0.1,0.1-0.2,0.3
	c0,0-0.1,0.1-0.2,0.2c-0.1,0.1-0.2,0.1-0.3,0.2c-0.2,0.1-0.6,0.1-0.9,0c-0.1,0-0.3-0.2-0.4-0.3c-0.1-0.2-0.3-0.5-0.3-0.8
	c-0.1-0.4-0.1-0.9-0.1-1.5v-5.3h3.1c0.2,0,0.4-0.2,0.4-0.4v-1.9c0-0.2-0.2-0.4-0.4-0.4h-3.1v-2.3c0-0.2-0.2-0.4-0.4-0.4h-1.9
	c-0.2,0-0.4,0.2-0.4,0.4v2.3h-1.5c-0.2,0-0.4,0.2-0.4,0.4v1.9c0,0.2,0.2,0.4,0.4,0.4h1.5v5.3c0,0.8,0.1,1.5,0.2,2.2
	c0.2,0.7,0.4,1.3,0.8,1.8c0.4,0.5,0.8,0.9,1.3,1.2c0.5,0.3,1.2,0.4,1.9,0.4c0.5,0,0.9-0.1,1.3-0.3c0.4-0.2,0.7-0.4,1-0.6
	c0.3-0.2,0.5-0.5,0.7-0.8c0.2-0.3,0.3-0.5,0.4-0.7C92.4,28.9,92.4,28.8,92.4,28.7z"/>
<g>
	<path class="st2" d="M95.7,14.5h-1.9c-0.1,0-0.1,0.1-0.1,0.1v2.1c0,0.1,0.1,0.1,0.1,0.1h1.9c0.1,0,0.1-0.1,0.1-0.1v-2.1
		C95.8,14.5,95.7,14.5,95.7,14.5z"/>
	<path class="st2" d="M95.7,18.1h-1.9c-0.1,0-0.1,0.1-0.1,0.1v12.7c0,0.1,0.1,0.1,0.1,0.1h1.9c0.1,0,0.1-0.1,0.1-0.1V18.2
		C95.8,18.2,95.7,18.1,95.7,18.1z"/>
	<path class="st2" d="M107.9,28.1c-0.1,0-0.1,0-0.2,0c-0.7,0.9-1.9,1.3-3.6,1.3c-1.5,0-2.6-0.4-3.3-1.2c-0.7-0.8-1-2-1-3.7
		c0-0.6,0.1-1.1,0.2-1.7c0.1-0.6,0.3-1.1,0.7-1.5c0.3-0.5,0.8-0.8,1.3-1.1c0.6-0.3,1.3-0.4,2.2-0.4c1.3,0,2.3,0.3,3,0.9
		c0,0,0.1,0,0.1,0c0,0,0.1,0,0.1,0l1.2-1.5c0-0.1,0-0.1,0-0.2c-1.1-0.9-2.6-1.3-4.4-1.3c-1.1,0-2,0.2-2.8,0.5
		c-0.8,0.3-1.5,0.8-2,1.5c-0.5,0.6-1,1.4-1.2,2.2c-0.3,0.9-0.4,1.8-0.4,2.8c0,2.3,0.6,4,1.7,5.2c1.1,1.2,2.7,1.8,4.8,1.8
		c2.4,0,4.2-0.7,5.3-2.2c0,0,0-0.1,0-0.1c0,0,0-0.1,0-0.1L107.9,28.1z"/>
	<path class="st2" d="M112.9,14.5H111c-0.1,0-0.1,0.1-0.1,0.1v2.1c0,0.1,0.1,0.1,0.1,0.1h1.9c0.1,0,0.1-0.1,0.1-0.1v-2.1
		C113,14.5,113,14.5,112.9,14.5z"/>
	<path class="st2" d="M112.9,18.1H111c-0.1,0-0.1,0.1-0.1,0.1v12.7c0,0.1,0.1,0.1,0.1,0.1h1.9c0.1,0,0.1-0.1,0.1-0.1V18.2
		C113,18.2,113,18.1,112.9,18.1z"/>
	<path class="st2" d="M128.3,14.6h-1.9c-0.1,0-0.1,0.1-0.1,0.1v6.2c-0.2-0.4-0.4-0.7-0.7-1.1c-0.3-0.4-0.7-0.8-1.1-1.1
		c-0.4-0.3-0.9-0.6-1.4-0.8c-0.5-0.2-1.1-0.3-1.7-0.3c-1,0-1.9,0.2-2.7,0.5c-0.8,0.3-1.5,0.8-2.1,1.4c-0.6,0.6-1,1.3-1.3,2.2
		c-0.3,0.9-0.5,1.9-0.5,2.9c0,1.1,0.1,2,0.4,2.9c0.3,0.9,0.7,1.6,1.2,2.2c0.6,0.6,1.3,1.1,2.1,1.4c0.9,0.3,1.9,0.5,3.1,0.5
		c1,0,1.9-0.3,2.7-0.9c0.8-0.6,1.4-1.4,1.9-2.4v2.6c0,0.1,0.1,0.1,0.1,0.1h1.9c0.1,0,0.1-0.1,0.1-0.1V14.7
		C128.4,14.6,128.4,14.6,128.3,14.6z M126.2,24.6c0,0.5-0.1,1-0.3,1.6c-0.2,0.6-0.5,1.1-0.9,1.6c-0.4,0.5-0.9,0.9-1.4,1.2
		c-0.6,0.3-1.2,0.5-2,0.5c-1.6,0-2.8-0.4-3.5-1.2c-0.7-0.8-1.1-2-1.1-3.7c0-0.6,0.1-1.1,0.2-1.7c0.1-0.6,0.4-1.1,0.7-1.5
		c0.3-0.5,0.8-0.8,1.4-1.1c0.6-0.3,1.4-0.4,2.3-0.4c0.6,0,1.2,0.1,1.8,0.4c0.6,0.2,1.1,0.6,1.5,1c0.4,0.4,0.8,0.9,1,1.5
		C126.1,23.2,126.2,23.9,126.2,24.6z"/>
	<path class="st2" d="M142.9,29.3c-0.1-0.1-0.3-0.2-0.5-0.3c-0.2-0.2-0.3-0.4-0.5-0.6c-0.1-0.3-0.2-0.6-0.2-1c0-0.1,0-0.3,0-0.6
		c0-0.3,0-0.6,0-0.9l0-0.1c0-0.3,0-0.7,0-1.1c0-0.9-0.1-1.7-0.3-2.6c-0.2-0.8-0.5-1.6-1-2.3c-0.5-0.7-1.2-1.2-2-1.6
		c-0.8-0.4-1.9-0.6-3.2-0.6c-1.8,0-3.2,0.5-4.4,1.3c-0.1,0-0.1,0.1,0,0.2l1.2,1.5c0,0.1,0.1,0.1,0.2,0c0.7-0.6,1.8-0.9,3-0.9
		c0.8,0,1.4,0.1,1.9,0.3c0.5,0.2,0.9,0.5,1.3,0.9c0.3,0.4,0.6,0.8,0.7,1.2c0.1,0.4,0.3,0.8,0.3,1.3h0c-0.3-0.4-0.6-0.7-0.9-1
		c-0.3-0.3-0.7-0.5-1.2-0.7c-0.5-0.2-1-0.3-1.6-0.3c-1,0-1.9,0.2-2.6,0.4c-0.7,0.3-1.3,0.7-1.7,1.2c-0.4,0.5-0.8,1-1,1.6
		c-0.2,0.6-0.3,1.2-0.3,1.8c0,0.7,0.1,1.3,0.4,2c0.2,0.6,0.6,1.2,1.1,1.7c0.5,0.5,1.1,0.9,1.8,1.2c0.7,0.3,1.5,0.5,2.4,0.5
		c0.6,0,1.2-0.1,1.7-0.3c0.5-0.2,0.9-0.4,1.2-0.7c0.3-0.3,0.6-0.5,0.8-0.8c0.2-0.2,0.3-0.4,0.5-0.5h0.2c0.2,0.3,0.4,0.6,0.6,0.8
		c0.2,0.2,0.5,0.5,0.7,0.6c0.2,0.2,0.5,0.3,0.7,0.5c0.2,0.1,0.4,0.2,0.6,0.3c0,0,0.1,0,0.1,0c0,0,0,0,0.1-0.1l0.4-1.9
		c0-0.1,0-0.1-0.1-0.1C143.1,29.4,143,29.4,142.9,29.3z M139.5,26.5c0,0.3-0.1,0.6-0.2,1c-0.1,0.4-0.3,0.7-0.6,1
		c-0.3,0.3-0.7,0.6-1.1,0.8c-0.5,0.2-1.1,0.3-1.8,0.3c-0.6,0-1.1-0.1-1.5-0.3c-0.4-0.2-0.8-0.4-1.1-0.7c-0.3-0.3-0.5-0.7-0.6-1
		c-0.1-0.4-0.2-0.8-0.2-1.2c0-0.6,0.1-1,0.4-1.4c0.2-0.4,0.5-0.7,0.9-0.9c0.4-0.2,0.7-0.4,1.1-0.4c0.4-0.1,0.7-0.1,1-0.1
		c0.6,0,1.1,0.1,1.6,0.3c0.5,0.2,0.9,0.4,1.2,0.7c0.3,0.3,0.6,0.6,0.7,1C139.4,25.8,139.5,26.1,139.5,26.5z"/>
	<path class="st2" d="M157.2,14.6h-1.9c-0.1,0-0.1,0.1-0.1,0.1v6.2c-0.2-0.4-0.4-0.7-0.7-1.1c-0.3-0.4-0.7-0.8-1.1-1.1
		c-0.4-0.3-0.9-0.6-1.4-0.8c-0.5-0.2-1.1-0.3-1.7-0.3c-1,0-1.9,0.2-2.7,0.5c-0.8,0.3-1.5,0.8-2.1,1.4c-0.6,0.6-1,1.3-1.3,2.2
		c-0.3,0.9-0.5,1.9-0.5,2.9c0,1.1,0.1,2,0.4,2.9c0.3,0.9,0.7,1.6,1.2,2.2s1.3,1.1,2.1,1.4c0.9,0.3,1.9,0.5,3.1,0.5
		c1,0,1.9-0.3,2.7-0.9c0.8-0.6,1.4-1.4,1.9-2.4v2.6c0,0.1,0.1,0.1,0.1,0.1h1.9c0.1,0,0.1-0.1,0.1-0.1V14.7
		C157.4,14.6,157.3,14.6,157.2,14.6z M155.2,24.6c0,0.5-0.1,1-0.3,1.6c-0.2,0.6-0.5,1.1-0.9,1.6c-0.4,0.5-0.9,0.9-1.4,1.2
		c-0.6,0.3-1.2,0.5-2,0.5c-1.6,0-2.8-0.4-3.5-1.2c-0.7-0.8-1.1-2-1.1-3.7c0-0.6,0.1-1.1,0.2-1.7c0.1-0.6,0.4-1.1,0.7-1.5
		c0.3-0.5,0.8-0.8,1.4-1.1c0.6-0.3,1.4-0.4,2.3-0.4c0.6,0,1.2,0.1,1.8,0.4c0.6,0.2,1.1,0.6,1.5,1c0.4,0.4,0.8,1,1,1.5
		C155,23.2,155.2,23.9,155.2,24.6z"/>
</g>
</svg>
